<?xml version="1.0" encoding="UTF-8"?>
<svg xmlns="http://www.w3.org/2000/svg" viewBox="0 0 1000 1000">
  <path d="m356.85,573.89c-48.63-44.78-109.82-75.74-174.14-81.28-14.28-58.54-4.55-141.66,13.24-188.96,29.25,5.3,94.67,21.88,155.23,70.04-15.55,60.73-13.64,127.98,5.67,200.2Z"/>
  <path d="m817.27,492.6c-64.34,5.53-125.47,36.42-174.09,81.2,19.21-72.54,21.11-139.77,5.64-200.11,60.52-48.14,125.9-64.73,155.14-70.03,17.82,47.2,27.59,130.3,13.31,188.94Z"/>
  <path d="m626.32,458.04l-.06.5.02.59c.84,71.62-31.78,203.93-126.32,342.22-130.5-185.94-196.38-443.86.51-604.74,71.28,57.38,134.49,187.16,125.85,261.43Z"/>
  <path d="m462.61,804.46c-186.25,16.5-384.08-68.39-409.43-262.36,120.26-48.08,254.29,2.93,329.21,108.08,20.86,52.09,47.83,103.95,80.22,154.28Z"/>
  <path d="m946.81,542.12c-25.48,194.07-223.09,278.75-409.48,262.35,32.49-50.33,58.79-100.89,80.27-154.29,75.18-105.31,208.64-156.1,329.21-108.06Z"/>
</svg>